<svg width="81" height="42" viewBox="0 0 81 42" fill="none" xmlns="http://www.w3.org/2000/svg">
<mask id="path-1-outside-1_103_2104" maskUnits="userSpaceOnUse" x="50" y="4" width="30" height="37" fill="black">
<rect fill="white" x="50" y="4" width="30" height="37"/>
<path d="M64.016 21.4C65.36 21.4 66.384 21.096 67.088 20.488C67.824 19.848 68.192 18.888 68.192 17.608C68.192 16.392 67.808 15.464 67.04 14.824C66.304 14.152 65.216 13.816 63.776 13.816C63.264 13.816 62.832 13.832 62.48 13.864C62.16 13.864 61.824 13.896 61.472 13.96V21.4H64.016ZM61.52 36.808C61.168 36.904 60.608 37 59.84 37.096C59.104 37.192 58.368 37.24 57.632 37.24C56.896 37.24 56.24 37.176 55.664 37.048C55.12 36.952 54.656 36.76 54.272 36.472C53.888 36.184 53.6 35.784 53.408 35.272C53.216 34.76 53.12 34.088 53.12 33.256V10.648C53.12 9.976 53.296 9.464 53.648 9.112C54.032 8.728 54.544 8.424 55.184 8.2C56.272 7.816 57.504 7.544 58.88 7.384C60.288 7.192 61.696 7.096 63.104 7.096C67.52 7.096 70.896 8.04 73.232 9.928C75.568 11.816 76.736 14.376 76.736 17.608C76.736 19.176 76.48 20.6 75.968 21.88C75.488 23.128 74.752 24.216 73.76 25.144C72.8 26.04 71.568 26.744 70.064 27.256C68.592 27.736 66.88 27.976 64.928 27.976H61.52V36.808Z"/>
</mask>
<path d="M64.016 21.4C65.36 21.4 66.384 21.096 67.088 20.488C67.824 19.848 68.192 18.888 68.192 17.608C68.192 16.392 67.808 15.464 67.04 14.824C66.304 14.152 65.216 13.816 63.776 13.816C63.264 13.816 62.832 13.832 62.48 13.864C62.16 13.864 61.824 13.896 61.472 13.96V21.4H64.016ZM61.52 36.808C61.168 36.904 60.608 37 59.84 37.096C59.104 37.192 58.368 37.24 57.632 37.24C56.896 37.24 56.24 37.176 55.664 37.048C55.12 36.952 54.656 36.76 54.272 36.472C53.888 36.184 53.6 35.784 53.408 35.272C53.216 34.76 53.12 34.088 53.12 33.256V10.648C53.12 9.976 53.296 9.464 53.648 9.112C54.032 8.728 54.544 8.424 55.184 8.2C56.272 7.816 57.504 7.544 58.88 7.384C60.288 7.192 61.696 7.096 63.104 7.096C67.52 7.096 70.896 8.04 73.232 9.928C75.568 11.816 76.736 14.376 76.736 17.608C76.736 19.176 76.48 20.6 75.968 21.88C75.488 23.128 74.752 24.216 73.76 25.144C72.8 26.04 71.568 26.744 70.064 27.256C68.592 27.736 66.88 27.976 64.928 27.976H61.52V36.808Z" fill="white"/>
<path d="M67.088 20.488L69.0489 22.7585L69.0565 22.7518L67.088 20.488ZM67.04 14.824L65.0172 17.0395L65.0673 17.0852L65.1194 17.1287L67.04 14.824ZM62.48 13.864V16.864H62.6161L62.7516 16.8517L62.48 13.864ZM61.472 13.96L60.9353 11.0084L58.472 11.4563V13.96H61.472ZM61.472 21.4H58.472V24.4H61.472V21.4ZM61.52 36.808L62.3094 39.7023L64.52 39.0994V36.808H61.52ZM59.84 37.096L59.4679 34.1192L59.4599 34.1202L59.452 34.1212L59.84 37.096ZM55.664 37.048L56.3148 34.1194L56.2504 34.1051L56.1854 34.0936L55.664 37.048ZM54.272 36.472L52.472 38.872L52.472 38.872L54.272 36.472ZM53.408 35.272L50.599 36.3254L50.599 36.3254L53.408 35.272ZM53.648 9.112L55.7693 11.2333L55.7693 11.2333L53.648 9.112ZM55.184 8.2L56.1751 11.0316L56.1825 11.029L55.184 8.2ZM58.88 7.384L59.2265 10.3639L59.256 10.3605L59.2853 10.3565L58.88 7.384ZM75.968 21.88L73.1826 20.7658L73.1751 20.7844L73.168 20.8031L75.968 21.88ZM73.76 25.144L75.807 27.3372L75.8095 27.3348L73.76 25.144ZM70.064 27.256L70.9941 30.1082L71.0125 30.1022L71.0308 30.0959L70.064 27.256ZM61.52 27.976V24.976H58.52V27.976H61.52ZM64.016 24.4C65.7655 24.4 67.6016 24.0084 69.0489 22.7585L65.1271 18.2175C65.1664 18.1836 64.9545 18.4 64.016 18.4V24.4ZM69.0565 22.7518C70.6378 21.3768 71.192 19.4681 71.192 17.608H65.192C65.192 17.9676 65.1396 18.1495 65.1148 18.2142C65.0968 18.2609 65.0964 18.2442 65.1195 18.2242L69.0565 22.7518ZM71.192 17.608C71.192 15.7132 70.56 13.8522 68.9606 12.5193L65.1194 17.1287C65.1302 17.1376 65.13 17.1392 65.1264 17.1342C65.1228 17.1293 65.1253 17.131 65.1319 17.1471C65.1453 17.1794 65.192 17.3127 65.192 17.608H71.192ZM69.0628 12.6085C67.5713 11.2467 65.6351 10.816 63.776 10.816V16.816C64.2714 16.816 64.5937 16.8748 64.7868 16.9344C64.8804 16.9633 64.9385 16.9908 64.9709 17.0087C65.0023 17.026 65.0148 17.0372 65.0172 17.0395L69.0628 12.6085ZM63.776 10.816C63.2096 10.816 62.6808 10.8334 62.2084 10.8763L62.7516 16.8517C62.9832 16.8306 63.3184 16.816 63.776 16.816V10.816ZM62.48 10.864C61.9604 10.864 61.444 10.9159 60.9353 11.0084L62.0087 16.9116C62.204 16.8761 62.3596 16.864 62.48 16.864V10.864ZM58.472 13.96V21.4H64.472V13.96H58.472ZM61.472 24.4H64.016V18.4H61.472V24.4ZM60.7306 33.9137C60.5966 33.9503 60.2148 34.0258 59.4679 34.1192L60.2121 40.0728C61.0012 39.9742 61.7394 39.8577 62.3094 39.7023L60.7306 33.9137ZM59.452 34.1212C58.8436 34.2006 58.2372 34.24 57.632 34.24V40.24C58.4988 40.24 59.3645 40.1834 60.228 40.0708L59.452 34.1212ZM57.632 34.24C57.0636 34.24 56.6323 34.19 56.3148 34.1194L55.0132 39.9766C55.8477 40.162 56.7284 40.24 57.632 40.24V34.24ZM56.1854 34.0936C56.1068 34.0798 56.0668 34.0648 56.0551 34.0599C56.0447 34.0557 56.0537 34.0583 56.072 34.072L52.472 38.872C53.286 39.4825 54.205 39.8369 55.1426 40.0024L56.1854 34.0936ZM56.072 34.072C56.1296 34.1152 56.1739 34.1632 56.2026 34.2031C56.2297 34.2407 56.2298 34.2527 56.217 34.2186L50.599 36.3254C50.9633 37.2967 51.5688 38.1946 52.472 38.872L56.072 34.072ZM56.217 34.2186C56.1993 34.1714 56.12 33.8964 56.12 33.256H50.12C50.12 34.2796 50.2327 35.3486 50.599 36.3254L56.217 34.2186ZM56.12 33.256V10.648H50.12V33.256H56.12ZM56.12 10.648C56.12 10.567 56.1314 10.6122 56.0891 10.7352C56.042 10.8723 55.9435 11.0591 55.7693 11.2333L51.5267 6.99068C50.4376 8.07974 50.12 9.46672 50.12 10.648H56.12ZM55.7693 11.2333C55.7694 11.2333 55.7745 11.2281 55.7871 11.2184C55.7997 11.2087 55.8205 11.194 55.8516 11.1756C55.9146 11.1382 56.0178 11.0866 56.175 11.0316L54.193 5.36842C53.2307 5.70521 52.2984 6.21891 51.5267 6.99068L55.7693 11.2333ZM56.1825 11.029C57.0224 10.7325 58.03 10.503 59.2265 10.3639L58.5335 4.40408C56.978 4.58495 55.5216 4.89947 54.1855 5.37103L56.1825 11.029ZM59.2853 10.3565C60.5602 10.1826 61.8328 10.096 63.104 10.096V4.096C61.5592 4.096 60.0158 4.20136 58.4747 4.41151L59.2853 10.3565ZM63.104 10.096C67.1457 10.096 69.7446 10.9667 71.3462 12.2612L75.1178 7.59478C72.0474 5.11327 67.8943 4.096 63.104 4.096V10.096ZM71.3462 12.2612C72.9183 13.5318 73.736 15.2031 73.736 17.608H79.736C79.736 13.5489 78.2177 10.1002 75.1178 7.59478L71.3462 12.2612ZM73.736 17.608C73.736 18.8464 73.5347 19.8855 73.1826 20.7658L78.7534 22.9942C79.4253 21.3145 79.736 19.5056 79.736 17.608H73.736ZM73.168 20.8031C72.8534 21.6209 72.3768 22.3299 71.7105 22.9532L75.8095 27.3348C77.1272 26.1021 78.1226 24.6351 78.768 22.9569L73.168 20.8031ZM71.713 22.9508C71.1214 23.5031 70.2821 24.0127 69.0972 24.416L71.0308 30.0959C72.8539 29.4753 74.4787 28.5769 75.807 27.3372L71.713 22.9508ZM69.1339 24.4038C68.0287 24.7642 66.6426 24.976 64.928 24.976V30.976C67.1174 30.976 69.1553 30.7078 70.9941 30.1082L69.1339 24.4038ZM64.928 24.976H61.52V30.976H64.928V24.976ZM58.52 27.976V36.808H64.52V27.976H58.52Z" fill="#092B22" mask="url(#path-1-outside-1_103_2104)"/>
<mask id="path-3-outside-2_103_2104" maskUnits="userSpaceOnUse" x="19" y="-5" width="39" height="49" fill="black">
<rect fill="white" x="19" y="-5" width="39" height="49"/>
<path d="M36.942 0.373998C39.298 0.373998 41.3853 0.683998 43.204 1.304C45.0227 1.88266 46.5727 2.68866 47.854 3.722C49.1353 4.75533 50.1067 5.97466 50.768 7.38C51.4293 8.78533 51.76 10.294 51.76 11.906C51.76 16.246 49.3007 20.3793 44.382 24.306L36.26 30.816H51.14C51.388 31.2707 51.6153 31.8493 51.822 32.552C52.07 33.2547 52.194 34.0193 52.194 34.846C52.194 36.334 51.8633 37.4087 51.202 38.07C50.5407 38.69 49.6727 39 48.598 39H27.084C26.1747 38.38 25.4513 37.5947 24.914 36.644C24.418 35.652 24.17 34.4947 24.17 33.172C24.17 31.7667 24.4593 30.5887 25.038 29.638C25.6167 28.646 26.2573 27.8607 26.96 27.282L35.516 19.966C36.5907 19.0567 37.4793 18.2507 38.182 17.548C38.8847 16.804 39.4427 16.1427 39.856 15.564C40.3107 14.9853 40.6207 14.448 40.786 13.952C40.9927 13.456 41.096 12.9807 41.096 12.526C41.096 11.3687 40.5793 10.4593 39.546 9.798C38.554 9.13667 37.314 8.806 35.826 8.806C34.1727 8.806 32.6847 9.07467 31.362 9.612C30.0807 10.108 29.006 10.6453 28.138 11.224C27.4353 10.728 26.8567 10.108 26.402 9.364C25.9473 8.62 25.72 7.752 25.72 6.76C25.72 4.61066 26.7327 3.01933 28.758 1.986C30.7833 0.911332 33.5113 0.373998 36.942 0.373998Z"/>
</mask>
<path d="M36.942 0.373998C39.298 0.373998 41.3853 0.683998 43.204 1.304C45.0227 1.88266 46.5727 2.68866 47.854 3.722C49.1353 4.75533 50.1067 5.97466 50.768 7.38C51.4293 8.78533 51.76 10.294 51.76 11.906C51.76 16.246 49.3007 20.3793 44.382 24.306L36.26 30.816H51.14C51.388 31.2707 51.6153 31.8493 51.822 32.552C52.07 33.2547 52.194 34.0193 52.194 34.846C52.194 36.334 51.8633 37.4087 51.202 38.07C50.5407 38.69 49.6727 39 48.598 39H27.084C26.1747 38.38 25.4513 37.5947 24.914 36.644C24.418 35.652 24.17 34.4947 24.17 33.172C24.17 31.7667 24.4593 30.5887 25.038 29.638C25.6167 28.646 26.2573 27.8607 26.96 27.282L35.516 19.966C36.5907 19.0567 37.4793 18.2507 38.182 17.548C38.8847 16.804 39.4427 16.1427 39.856 15.564C40.3107 14.9853 40.6207 14.448 40.786 13.952C40.9927 13.456 41.096 12.9807 41.096 12.526C41.096 11.3687 40.5793 10.4593 39.546 9.798C38.554 9.13667 37.314 8.806 35.826 8.806C34.1727 8.806 32.6847 9.07467 31.362 9.612C30.0807 10.108 29.006 10.6453 28.138 11.224C27.4353 10.728 26.8567 10.108 26.402 9.364C25.9473 8.62 25.72 7.752 25.72 6.76C25.72 4.61066 26.7327 3.01933 28.758 1.986C30.7833 0.911332 33.5113 0.373998 36.942 0.373998Z" fill="#FFF300"/>
<path d="M43.204 1.304L41.5906 6.03655L41.6391 6.05309L41.688 6.06863L43.204 1.304ZM47.854 3.722L44.7152 7.61406L44.7152 7.61407L47.854 3.722ZM50.768 7.38L55.2921 5.25101L55.2921 5.25101L50.768 7.38ZM44.382 24.306L41.2625 20.3984L41.2549 20.4046L44.382 24.306ZM36.26 30.816L33.1329 26.9146L22.0273 35.816H36.26V30.816ZM51.14 30.816L55.5295 28.4217L54.1082 25.816H51.14V30.816ZM51.822 32.552L47.0252 33.9628L47.0627 34.0906L47.107 34.2161L51.822 32.552ZM51.202 38.07L54.6217 41.7177L54.6805 41.6625L54.7375 41.6055L51.202 38.07ZM27.084 39L24.2673 43.1311L25.5416 44H27.084V39ZM24.914 36.644L20.4419 38.8801L20.4987 38.9937L20.5612 39.1043L24.914 36.644ZM25.038 29.638L29.309 32.2377L29.3333 32.1978L29.3569 32.1574L25.038 29.638ZM26.96 27.282L30.1385 31.1417L30.1743 31.1122L30.2094 31.0822L26.96 27.282ZM35.516 19.966L32.2863 16.1491L32.2764 16.1574L32.2666 16.1658L35.516 19.966ZM38.182 17.548L41.7175 21.0835L41.768 21.033L41.8171 20.9811L38.182 17.548ZM39.856 15.564L35.9244 12.4749L35.8538 12.5648L35.7873 12.6578L39.856 15.564ZM40.786 13.952L36.1706 12.0289L36.1004 12.1976L36.0426 12.3709L40.786 13.952ZM39.546 9.798L36.7725 13.9583L36.8114 13.9842L36.8507 14.0094L39.546 9.798ZM31.362 9.612L33.167 14.2748L33.2056 14.2599L33.2439 14.2443L31.362 9.612ZM28.138 11.224L25.2546 15.3088L28.0572 17.2871L30.9115 15.3843L28.138 11.224ZM26.402 9.364L22.1356 11.9712L26.402 9.364ZM28.758 1.986L31.0304 6.43981L31.0661 6.42156L31.1016 6.40274L28.758 1.986ZM36.942 5.374C38.8687 5.374 40.3937 5.62849 41.5906 6.03655L44.8174 -3.42855C42.377 -4.2605 39.7273 -4.626 36.942 -4.626V5.374ZM41.688 6.06863C43.0091 6.48898 43.9865 7.02634 44.7152 7.61406L50.9928 -0.170064C49.1589 -1.64901 47.0362 -2.72365 44.72 -3.46063L41.688 6.06863ZM44.7152 7.61407C45.4434 8.20127 45.9241 8.8294 46.2439 9.50898L55.2921 5.25101C54.2892 3.11993 52.8273 1.30939 50.9928 -0.170066L44.7152 7.61407ZM46.2439 9.50898C46.5799 10.2229 46.76 11.0014 46.76 11.906H56.76C56.76 9.58661 56.2788 7.34777 55.2921 5.25101L46.2439 9.50898ZM46.76 11.906C46.76 14.1334 45.5487 16.9767 41.2625 20.3985L47.5015 28.2135C53.0526 23.782 56.76 18.3586 56.76 11.906H46.76ZM41.2549 20.4046L33.1329 26.9146L39.3871 34.7174L47.5091 28.2074L41.2549 20.4046ZM36.26 35.816H51.14V25.816H36.26V35.816ZM46.7505 33.2103C46.7742 33.2537 46.8812 33.4733 47.0252 33.9628L56.6188 31.1412C56.3495 30.2254 56.0018 29.2876 55.5295 28.4217L46.7505 33.2103ZM47.107 34.2161C47.1469 34.329 47.194 34.5245 47.194 34.846H57.194C57.194 33.5141 56.9931 32.1803 56.537 30.8879L47.107 34.2161ZM47.194 34.846C47.194 35.2425 47.1473 35.3621 47.1671 35.2976C47.1934 35.212 47.3148 34.8861 47.6665 34.5345L54.7375 41.6055C56.7619 39.5812 57.194 36.9041 57.194 34.846H47.194ZM47.7823 34.4223C47.9606 34.2552 48.1725 34.1305 48.3733 34.0588C48.5604 33.992 48.6555 34 48.598 34V44C50.6923 44 52.8656 43.364 54.6217 41.7177L47.7823 34.4223ZM48.598 34H27.084V44H48.598V34ZM29.9007 34.8689C29.6195 34.6772 29.4239 34.4616 29.2668 34.1837L20.5612 39.1043C21.4788 40.7277 22.7298 42.0828 24.2673 43.1311L29.9007 34.8689ZM29.3861 34.4079C29.298 34.2316 29.17 33.8667 29.17 33.172H19.17C19.17 35.1227 19.538 37.0724 20.4419 38.8801L29.3861 34.4079ZM29.17 33.172C29.17 32.8094 29.2076 32.57 29.2427 32.4271C29.2764 32.2899 29.3081 32.2393 29.309 32.2377L20.767 27.0383C19.6012 28.9536 19.17 31.088 19.17 33.172H29.17ZM29.3569 32.1574C29.7123 31.5481 29.9941 31.2606 30.1385 31.1417L23.7815 23.4223C22.5206 24.4607 21.521 25.7439 20.7191 27.1186L29.3569 32.1574ZM30.2094 31.0822L38.7654 23.7662L32.2666 16.1658L23.7106 23.4818L30.2094 31.0822ZM38.7457 23.7829C39.8865 22.8176 40.886 21.9151 41.7175 21.0835L34.6465 14.0125C34.0727 14.5862 33.2948 15.2957 32.2863 16.1491L38.7457 23.7829ZM41.8171 20.9811C42.6145 20.1368 43.3355 19.2951 43.9247 18.4702L35.7873 12.6578C35.5499 12.9902 35.1548 13.4712 34.5469 14.1149L41.8171 20.9811ZM43.7876 18.6531C44.4642 17.792 45.1246 16.7476 45.5294 15.5331L36.0426 12.3709C36.0837 12.2475 36.1157 12.1987 36.0986 12.2284C36.0819 12.2572 36.031 12.3393 35.9244 12.4749L43.7876 18.6531ZM45.4014 15.8751C45.8166 14.8787 46.096 13.7494 46.096 12.526H36.096C36.096 12.212 36.1688 12.0333 36.1706 12.0289L45.4014 15.8751ZM46.096 12.526C46.096 9.54428 44.607 7.10071 42.2413 5.58664L36.8507 14.0094C36.8019 13.9781 36.5681 13.8102 36.3612 13.446C36.1474 13.0697 36.096 12.7188 36.096 12.526H46.096ZM42.3195 5.63775C40.3233 4.30695 38.0557 3.806 35.826 3.806V13.806C36.2025 13.806 36.4445 13.8481 36.5837 13.8852C36.7157 13.9204 36.7651 13.9533 36.7725 13.9583L42.3195 5.63775ZM35.826 3.806C33.6283 3.806 31.4872 4.16427 29.4801 4.97966L33.2439 14.2443C33.8821 13.9851 34.717 13.806 35.826 13.806V3.806ZM29.557 4.94916C28.0359 5.538 26.6141 6.23067 25.3645 7.06375L30.9115 15.3843C31.3979 15.06 32.1255 14.678 33.167 14.2748L29.557 4.94916ZM31.0214 7.13916C30.8835 7.04179 30.7727 6.92733 30.6684 6.75675L22.1356 11.9712C22.9407 13.2887 23.9872 14.4142 25.2546 15.3088L31.0214 7.13916ZM30.6684 6.75675C30.6842 6.78255 30.6977 6.80915 30.7085 6.83455C30.7192 6.85982 30.7249 6.87865 30.7274 6.8882C30.7298 6.8975 30.7281 6.89377 30.7257 6.87415C30.7233 6.85428 30.72 6.81701 30.72 6.76H20.72C20.72 8.54247 21.1378 10.3386 22.1356 11.9712L30.6684 6.75675ZM30.72 6.76C30.72 6.68765 30.7243 6.63687 30.7283 6.60504C30.7322 6.5735 30.7361 6.55927 30.7361 6.55918C30.7362 6.55896 30.7355 6.56155 30.7338 6.56656C30.732 6.57157 30.7294 6.57835 30.7258 6.58652C30.7183 6.60364 30.7087 6.62179 30.6978 6.63888C30.6734 6.67726 30.6626 6.67947 30.6976 6.64916C30.7363 6.61573 30.8355 6.53924 31.0304 6.43981L26.4857 -2.46781C24.8416 -1.62899 23.3364 -0.419544 22.2612 1.27012C21.1759 2.97562 20.72 4.87051 20.72 6.76H30.72ZM31.1016 6.40274C32.135 5.85439 33.9552 5.374 36.942 5.374V-4.626C33.0674 -4.626 29.4317 -4.03173 26.4144 -2.43074L31.1016 6.40274Z" fill="#092B22" mask="url(#path-3-outside-2_103_2104)"/>
<mask id="path-5-outside-3_103_2104" maskUnits="userSpaceOnUse" x="-3" y="4" width="32" height="37" fill="black">
<rect fill="white" x="-3" y="4" width="32" height="37"/>
<path d="M1.776 14.632C1.552 14.28 1.344 13.8 1.152 13.192C0.96 12.584 0.864 11.944 0.864 11.272C0.864 10.024 1.136 9.128 1.68 8.584C2.256 8.04 2.992 7.768 3.888 7.768H24.816C25.04 8.12 25.248 8.6 25.44 9.208C25.632 9.816 25.728 10.456 25.728 11.128C25.728 12.376 25.44 13.272 24.864 13.816C24.32 14.36 23.6 14.632 22.704 14.632H17.376V36.808C17.024 36.904 16.464 37 15.696 37.096C14.96 37.192 14.224 37.24 13.488 37.24C12.752 37.24 12.096 37.176 11.52 37.048C10.976 36.952 10.512 36.76 10.128 36.472C9.744 36.184 9.456 35.784 9.264 35.272C9.072 34.76 8.976 34.088 8.976 33.256V14.632H1.776Z"/>
</mask>
<path d="M1.776 14.632C1.552 14.28 1.344 13.8 1.152 13.192C0.96 12.584 0.864 11.944 0.864 11.272C0.864 10.024 1.136 9.128 1.68 8.584C2.256 8.04 2.992 7.768 3.888 7.768H24.816C25.04 8.12 25.248 8.6 25.44 9.208C25.632 9.816 25.728 10.456 25.728 11.128C25.728 12.376 25.44 13.272 24.864 13.816C24.32 14.36 23.6 14.632 22.704 14.632H17.376V36.808C17.024 36.904 16.464 37 15.696 37.096C14.96 37.192 14.224 37.24 13.488 37.24C12.752 37.24 12.096 37.176 11.52 37.048C10.976 36.952 10.512 36.76 10.128 36.472C9.744 36.184 9.456 35.784 9.264 35.272C9.072 34.76 8.976 34.088 8.976 33.256V14.632H1.776Z" fill="white"/>
<path d="M1.776 14.632L-0.754985 16.2426L0.129162 17.632H1.776V14.632ZM1.152 13.192L-1.70875 14.0954L-1.70875 14.0954L1.152 13.192ZM1.68 8.584L-0.379872 6.40296L-0.411021 6.43238L-0.441318 6.46268L1.68 8.584ZM24.816 7.768L27.347 6.15737L26.4628 4.768H24.816V7.768ZM25.44 9.208L28.3008 8.30461L28.3008 8.30461L25.44 9.208ZM24.864 13.816L22.8041 11.635L22.773 11.6644L22.7427 11.6947L24.864 13.816ZM17.376 14.632V11.632H14.376V14.632H17.376ZM17.376 36.808L18.1654 39.7023L20.376 39.0994V36.808H17.376ZM15.696 37.096L15.3239 34.1192L15.3159 34.1202L15.308 34.1212L15.696 37.096ZM11.52 37.048L12.1708 34.1194L12.1064 34.1051L12.0414 34.0936L11.52 37.048ZM10.128 36.472L11.928 34.072L10.128 36.472ZM9.264 35.272L6.45501 36.3254L6.45501 36.3254L9.264 35.272ZM8.976 14.632H11.976V11.632H8.976V14.632ZM4.30699 13.0214C4.27636 12.9733 4.16284 12.7639 4.01275 12.2886L-1.70875 14.0954C-1.47484 14.8361 -1.17236 15.5867 -0.754985 16.2426L4.30699 13.0214ZM4.01275 12.2886C3.91791 11.9883 3.864 11.6541 3.864 11.272H-2.136C-2.136 12.2339 -1.99791 13.1797 -1.70875 14.0954L4.01275 12.2886ZM3.864 11.272C3.864 10.8515 3.91151 10.6248 3.93864 10.5354C3.96219 10.4579 3.946 10.5606 3.80132 10.7053L-0.441318 6.46268C-1.81194 7.83329 -2.136 9.70196 -2.136 11.272H3.864ZM3.73987 10.765C3.74177 10.7632 3.73706 10.7679 3.72641 10.7745C3.7157 10.7811 3.70698 10.7849 3.70395 10.786C3.69536 10.7892 3.74518 10.768 3.888 10.768V4.768C2.33434 4.768 0.827085 5.26306 -0.379872 6.40296L3.73987 10.765ZM3.888 10.768H24.816V4.768H3.888V10.768ZM22.285 9.37863C22.3156 9.42675 22.4292 9.6361 22.5793 10.1114L28.3008 8.30461C28.0668 7.56389 27.7644 6.81325 27.347 6.15737L22.285 9.37863ZM22.5793 10.1114C22.6741 10.4117 22.728 10.7459 22.728 11.128H28.728C28.728 10.1661 28.5899 9.22028 28.3008 8.30461L22.5793 10.1114ZM22.728 11.128C22.728 11.5356 22.6792 11.7454 22.6559 11.818C22.6376 11.8751 22.6611 11.77 22.8041 11.635L26.9239 15.997C28.3696 14.6316 28.728 12.7374 28.728 11.128H22.728ZM22.7427 11.6947C22.7534 11.6839 22.7715 11.6683 22.7959 11.6526C22.8203 11.6368 22.8419 11.6269 22.8558 11.6216C22.8853 11.6104 22.8483 11.632 22.704 11.632V17.632C24.2541 17.632 25.786 17.1367 26.9853 15.9373L22.7427 11.6947ZM22.704 11.632H17.376V17.632H22.704V11.632ZM14.376 14.632V36.808H20.376V14.632H14.376ZM16.5866 33.9137C16.4526 33.9503 16.0708 34.0258 15.3239 34.1192L16.0681 40.0728C16.8572 39.9742 17.5954 39.8577 18.1654 39.7023L16.5866 33.9137ZM15.308 34.1212C14.6996 34.2006 14.0932 34.24 13.488 34.24V40.24C14.3548 40.24 15.2205 40.1834 16.084 40.0708L15.308 34.1212ZM13.488 34.24C12.9196 34.24 12.4883 34.19 12.1708 34.1194L10.8692 39.9766C11.7037 40.162 12.5844 40.24 13.488 40.24V34.24ZM12.0414 34.0936C11.9628 34.0798 11.9228 34.0648 11.9111 34.0599C11.9007 34.0557 11.9097 34.0583 11.928 34.072L8.328 38.872C9.14195 39.4825 10.061 39.8369 10.9986 40.0024L12.0414 34.0936ZM11.928 34.072C11.9856 34.1152 12.0299 34.1632 12.0586 34.2031C12.0857 34.2407 12.0858 34.2527 12.073 34.2186L6.45501 36.3254C6.81927 37.2967 7.42478 38.1946 8.328 38.872L11.928 34.072ZM12.073 34.2186C12.0553 34.1714 11.976 33.8964 11.976 33.256H5.976C5.976 34.2796 6.08873 35.3486 6.45501 36.3254L12.073 34.2186ZM11.976 33.256V14.632H5.976V33.256H11.976ZM8.976 11.632H1.776V17.632H8.976V11.632Z" fill="#092B22" mask="url(#path-5-outside-3_103_2104)"/>
</svg>
